<svg width="26" height="32" viewBox="0 0 26 32" fill="none" xmlns="http://www.w3.org/2000/svg">
<path d="M2 28C2 29.1 2.9 30 4 30H18C19.1 30 20 29.1 20 28V8H2V28ZM15 12C15 11.4 15.4 11 16 11C16.6 11 17 11.4 17 12V26C17 26.6 16.6 27 16 27C15.4 27 15 26.6 15 26V12ZM10 12C10 11.4 10.4 11 11 11C11.6 11 12 11.4 12 12V26C12 26.6 11.6 27 11 27C10.4 27 10 26.6 10 26V12ZM5 12C5 11.5 5.5 11 6 11C6.5 11 7 11.5 7 12V26C7 26.5 6.5 27 6 27C5.5 27 5 26.5 5 26V12Z" fill="black"/>
<path d="M21 5H14V4C14 2.9 13.1 2 12 2H10C8.9 2 8 2.9 8 4V5H1C0.4 5 0 5.4 0 6V7H22V6C22 5.4 21.6 5 21 5ZM13 5H9V4C9 3.4 9.4 3 10 3H12C12.6 3 13 3.4 13 4V5Z" fill="black"/>
</svg>
